# xmcd
#
# Track frame offsets:
#	150
#	21947
#	40125
#	62815
#	80574
#	101304
#	126068
#	142527
#	166447
#	188229
#
# Disc length: 2762 seconds
#
# Revision: 0
# Processed by: cddbd v1.5.2PL0 Copyright (c) Steve Scherf et al.
# Submitted via: FairStars CD Ripper 1.90
#
DISCID=7a0ac80a
DTITLE=Cam Ly - Nguoi oi hay chia tay
DYEAR=2011
DGENRE=Vietnamese
TTITLE0=Mong cho
TTITLE1=Nguoi oi hay chia tay
TTITLE2=Vo tinh
TTITLE3=Mai mai
TTITLE4=Tha trang tha den
TTITLE5=Lo duyen
TTITLE6=Lan dau noi doi
TTITLE7=Chi con ky niem
TTITLE8=Loi chia tay
TTITLE9=Tinh xa ngan khoi
EXTD=
EXTT0=
EXTT1=
EXTT2=
EXTT3=
EXTT4=
EXTT5=
EXTT6=
EXTT7=
EXTT8=
EXTT9=
PLAYORDER=
